<svg width="56" height="34" viewBox="0 0 56 34" fill="none" xmlns="http://www.w3.org/2000/svg">
<path d="M35.1529 3.74023H20.3471V30.3485H35.1529V3.74023Z" fill="#FF5F00"/>
<path d="M21.2871 17.0466C21.2844 14.4837 21.8649 11.9537 22.9846 9.64835C24.1043 7.34295 25.7339 5.32256 27.75 3.74016C25.2538 1.77837 22.2559 0.558447 19.0991 0.219821C15.9424 -0.118805 12.754 0.437526 9.89844 1.82523C7.04288 3.21294 4.63535 5.37603 2.95099 8.06729C1.26664 10.7585 0.373413 13.8694 0.373413 17.0443C0.373413 20.2192 1.26664 23.33 2.95099 26.0213C4.63535 28.7125 7.04288 30.8756 9.89844 32.2633C12.754 33.651 15.9424 34.2074 19.0991 33.8687C22.2559 33.5301 25.2538 32.3102 27.75 30.3484C25.7345 28.7665 24.1053 26.7469 22.9856 24.4423C21.8659 22.1378 21.2851 19.6088 21.2871 17.0466Z" fill="#EB001B"/>
<path d="M55.1291 17.0466C55.129 20.2218 54.2356 23.3328 52.5509 26.0242C50.8663 28.7155 48.4584 30.8786 45.6025 32.2661C42.7465 33.6536 39.5579 34.2095 36.4009 33.8704C33.2439 33.5313 30.2461 32.3108 27.75 30.3484C29.7647 28.7651 31.3934 26.7449 32.5134 24.4402C33.6334 22.1356 34.2154 19.6067 34.2154 17.0443C34.2154 14.4819 33.6334 11.953 32.5134 9.64833C31.3934 7.34367 29.7647 5.32348 27.75 3.74016C30.2461 1.77776 33.2439 0.557244 36.4009 0.218131C39.5579 -0.120981 42.7465 0.434992 45.6025 1.8225C48.4584 3.21001 50.8663 5.37306 52.5509 8.06441C54.2356 10.7558 55.129 13.8668 55.1291 17.0419V17.0466Z" fill="#F79E1B"/>
<path d="M53.5122 27.5282V26.9829H53.7331V26.8701H53.1738V26.9829H53.4135V27.5282H53.5122ZM54.598 27.5282V26.8701H54.4287L54.2313 27.3401L54.0339 26.8701H53.8835V27.5282H54.0057V27.0346L54.189 27.4624H54.3159L54.4992 27.0346V27.5329L54.598 27.5282Z" fill="#F79E1B"/>
</svg>
