<svg width="80" height="45" viewBox="0 0 80 45" fill="none" xmlns="http://www.w3.org/2000/svg">
<g clip-path="url(#clip0_2_429)">
<path fill-rule="evenodd" clip-rule="evenodd" d="M21.0185 10V10.0096C21.0089 10.0096 17.9718 10 17.1619 12.9021C16.4195 15.5632 14.3273 22.91 14.2695 23.1125H13.691C13.691 23.1125 11.5506 15.6017 10.7985 12.8925C9.98863 9.99036 6.9419 10 6.9419 10H0V32.0791H6.9419V18.9666H7.23115H7.5204L11.5698 32.0791H16.3906L20.44 18.9763H21.0185V32.0791H27.9604V10H21.0185Z" fill="#4DB45E"/>
<path fill-rule="evenodd" clip-rule="evenodd" d="M46.3758 10C46.3758 10 44.3414 10.1832 43.3869 12.314L38.4697 23.1125H37.8912V10H30.9493V32.0791H37.5056C37.5056 32.0791 39.6363 31.8863 40.5908 29.7651L45.4116 18.9666H45.9901V32.0791H52.932V10H46.3758Z" fill="#4DB45E"/>
<path fill-rule="evenodd" clip-rule="evenodd" d="M56.0173 20.0271V32.079H62.9592V25.0407H70.4796C73.7577 25.0407 76.5345 22.9485 77.5661 20.0271H56.0173Z" fill="#4DB45E"/>
<path fill-rule="evenodd" clip-rule="evenodd" d="M70.4796 10H55.0435C55.8148 14.2037 58.9676 17.5782 63.046 18.6774C63.9716 18.9281 64.9454 19.063 65.9481 19.063H77.8457C77.9518 18.5617 78 18.0507 78 17.5204C78 13.3649 74.6351 10 70.4796 10Z" fill="url(#paint0_linear_2_429)"/>
</g>
<defs>
<linearGradient id="paint0_linear_2_429" x1="55.0454" y1="14.5315" x2="78" y2="14.5315" gradientUnits="userSpaceOnUse">
<stop offset="0.3" stop-color="#00B4E6"/>
<stop offset="1" stop-color="#088CCB"/>
</linearGradient>
<clipPath id="clip0_2_429">
<rect width="78" height="22.0791" fill="white" transform="translate(0 10)"/>
</clipPath>
</defs>
</svg>
