<svg width="81" height="45" viewBox="0 0 81 45" fill="none" xmlns="http://www.w3.org/2000/svg">
<g clip-path="url(#clip0_2_439)">
<path d="M34.4249 34.8798H28.1064L32.0585 10.4431H38.3767L34.4249 34.8798Z" fill="#00579F"/>
<path d="M57.3302 11.0404C56.0839 10.5459 54.1072 10 51.663 10C45.4232 10 41.0292 13.3274 41.0023 18.0845C40.9504 21.5943 44.1482 23.5437 46.5399 24.714C48.9845 25.9099 49.8155 26.6904 49.8155 27.7563C49.7906 29.3934 47.8401 30.148 46.021 30.148C43.4983 30.148 42.1466 29.759 40.0925 28.8482L39.2605 28.4577L38.3763 33.9432C39.8583 34.6184 42.5886 35.2175 45.4232 35.2438C52.0531 35.2438 56.3693 31.9679 56.4205 26.8984C56.4457 24.1166 54.7571 21.9851 51.1167 20.2433C48.9068 19.1252 47.5534 18.3713 47.5534 17.2273C47.5793 16.1872 48.6981 15.122 51.1927 15.122C53.2469 15.0698 54.7561 15.5636 55.8994 16.0577L56.4709 16.3172L57.3302 11.0404Z" fill="#00579F"/>
<path d="M65.7281 26.2227C66.2485 24.8189 68.2508 19.3855 68.2508 19.3855C68.2245 19.4377 68.7701 17.9558 69.0821 17.046L69.5237 19.1516C69.5237 19.1516 70.7202 25.001 70.98 26.2227C69.9925 26.2227 66.9761 26.2227 65.7281 26.2227ZM73.5276 10.4431H68.6402C67.133 10.4431 65.9879 10.8847 65.3377 12.4706L55.9523 34.8794H62.5821C62.5821 34.8794 63.6736 31.8634 63.9082 31.2138C64.6356 31.2138 71.0851 31.2138 72.0207 31.2138C72.2021 32.0717 72.7747 34.8794 72.7747 34.8794H78.625L73.5276 10.4431Z" fill="#00579F"/>
<path d="M22.8289 10.4431L16.6409 27.1066L15.9648 23.727C14.8207 19.8275 11.2328 15.5907 7.22894 13.484L12.8969 34.8538H19.5786L29.5102 10.4431H22.8289Z" fill="#00579F"/>
<path d="M10.8949 10.4431H0.729001L0.625 10.9369C8.55506 12.9647 13.807 17.8528 15.9648 23.7281L13.7548 12.4972C13.391 10.9365 12.2729 10.4946 10.8949 10.4431Z" fill="#FAA61A"/>
</g>
<defs>
<clipPath id="clip0_2_439">
<rect width="78" height="25.2438" fill="white" transform="translate(0.625 10)"/>
</clipPath>
</defs>
</svg>
