<svg width="8" height="13" viewBox="0 0 8 13" fill="none" xmlns="http://www.w3.org/2000/svg">
<path d="M1.48294 12.984C1.33992 12.9844 1.20001 12.9423 1.08095 12.863C0.961891 12.7838 0.86905 12.671 0.814202 12.5389C0.759354 12.4068 0.74497 12.2614 0.772875 12.1211C0.80078 11.9809 0.869716 11.852 0.97094 11.751L6.25194 6.484L0.96994 1.214C0.843614 1.0764 0.775357 0.895307 0.779434 0.70856C0.783511 0.521814 0.859607 0.343869 0.991817 0.211917C1.12403 0.079965 1.30212 0.00421737 1.48887 0.000505518C1.67563 -0.00320633 1.85659 0.0654048 1.99394 0.191999L7.78794 5.974C7.85512 6.04106 7.90843 6.12071 7.94479 6.2084C7.98116 6.29608 7.99988 6.39007 7.99988 6.485C7.99988 6.57993 7.98116 6.67392 7.94479 6.7616C7.90843 6.84929 7.85512 6.92894 7.78794 6.996L1.99394 12.778C1.85794 12.911 1.67394 12.985 1.48294 12.984Z" fill="#151515"/>
</svg>
