<svg width="8" height="13" viewBox="0 0 8 13" fill="none" xmlns="http://www.w3.org/2000/svg">
<path d="M6.517 12.984C6.66002 12.9844 6.79993 12.9423 6.91899 12.863C7.03805 12.7838 7.13089 12.671 7.18574 12.5389C7.24059 12.4068 7.25497 12.2614 7.22706 12.1211C7.19916 11.9809 7.13022 11.852 7.029 11.751L1.748 6.484L7.03 1.214C7.15632 1.0764 7.22458 0.895307 7.22051 0.70856C7.21643 0.521814 7.14033 0.343869 7.00812 0.211917C6.87591 0.079965 6.69782 0.00421737 6.51106 0.000505518C6.32431 -0.00320633 6.14335 0.0654048 6.006 0.191999L0.211999 5.974C0.144815 6.04106 0.0915139 6.12071 0.055147 6.2084C0.0187801 6.29608 6.10352e-05 6.39007 6.10352e-05 6.485C6.10352e-05 6.57993 0.0187801 6.67392 0.055147 6.7616C0.0915139 6.84929 0.144815 6.92894 0.211999 6.996L6.006 12.778C6.142 12.911 6.326 12.985 6.517 12.984Z" fill="#151515"/>
</svg>
