<svg width="170" height="38" viewBox="0 0 170 38" fill="none" xmlns="http://www.w3.org/2000/svg">
<path d="M21.2257 27.1921C21.2257 29.325 20.7445 31.2109 19.782 32.8496C18.8456 34.4624 17.571 35.724 15.9583 36.6344C14.3715 37.5448 12.5897 38 10.6128 38C8.63593 38 6.84112 37.5448 5.22838 36.6344C3.64166 35.724 2.36708 34.4624 1.40464 32.8496C0.468213 31.2109 0 29.325 0 27.1921C0 25.0591 0.468213 23.1862 1.40464 21.5735C2.36708 19.9348 3.64166 18.6602 5.22838 17.7498C6.84112 16.8133 8.63593 16.3451 10.6128 16.3451C12.5897 16.3451 14.3715 16.8133 15.9583 17.7498C17.571 18.6602 18.8456 19.9348 19.782 21.5735C20.7445 23.1862 21.2257 25.0591 21.2257 27.1921ZM16.5435 27.1921C16.5435 25.8655 16.2704 24.7209 15.7242 23.7585C15.2039 22.7701 14.4886 22.0027 13.5782 21.4565C12.6938 20.9102 11.7053 20.6371 10.6128 20.6371C9.52034 20.6371 8.51888 20.9102 7.60847 21.4565C6.72406 22.0027 6.00874 22.7701 5.46249 23.7585C4.94225 24.7209 4.68213 25.8655 4.68213 27.1921C4.68213 28.4927 4.94225 29.6372 5.46249 30.6256C6.00874 31.5881 6.72406 32.3424 7.60847 32.8887C8.51888 33.4349 9.52034 33.708 10.6128 33.708C11.7053 33.708 12.6938 33.4349 13.5782 32.8887C14.4886 32.3424 15.2039 31.5881 15.7242 30.6256C16.2704 29.6372 16.5435 28.4927 16.5435 27.1921Z" fill="black"/>
<path d="M27.6645 37.6098C26.9882 37.6098 26.429 37.3887 25.9868 36.9465C25.5446 36.4783 25.3235 35.906 25.3235 35.2297V19.1154C25.3235 18.4391 25.5446 17.8798 25.9868 17.4376C26.429 16.9694 26.9882 16.7353 27.6645 16.7353C28.3408 16.7353 28.9001 16.9694 29.3423 17.4376C29.7845 17.8798 30.0056 18.4391 30.0056 19.1154V22.7831L29.7325 20.1689C30.0186 19.5446 30.3828 18.9983 30.825 18.5301C31.2932 18.0359 31.8134 17.6327 32.3857 17.3206C32.9579 16.9824 33.5692 16.7353 34.2195 16.5792C34.8698 16.4232 35.5201 16.3451 36.1704 16.3451C36.9508 16.3451 37.601 16.5662 38.1213 17.0084C38.6675 17.4506 38.9407 17.9709 38.9407 18.5691C38.9407 19.4275 38.7196 20.0518 38.2774 20.442C37.8352 20.8062 37.3539 20.9882 36.8337 20.9882C36.3395 20.9882 35.8843 20.8972 35.4681 20.7151C35.0779 20.533 34.6227 20.442 34.1025 20.442C33.6342 20.442 33.153 20.559 32.6588 20.7932C32.1906 21.0013 31.7484 21.3394 31.3322 21.8076C30.942 22.2758 30.6169 22.8611 30.3567 23.5634C30.1226 24.2397 30.0056 25.0461 30.0056 25.9825V35.2297C30.0056 35.906 29.7845 36.4783 29.3423 36.9465C28.9001 37.3887 28.3408 37.6098 27.6645 37.6098Z" fill="black"/>
<path d="M53.0492 16.3451C54.8701 16.3451 56.4958 16.8133 57.9265 17.7498C59.3831 18.6602 60.5276 19.9218 61.36 21.5345C62.2184 23.1472 62.6476 25.0201 62.6476 27.1531C62.6476 29.286 62.2184 31.1719 61.36 32.8106C60.5276 34.4234 59.3961 35.6979 57.9655 36.6344C56.5608 37.5448 54.9741 38 53.2053 38C52.1648 38 51.1894 37.8309 50.279 37.4928C49.3686 37.1546 48.5622 36.7254 47.8599 36.2052C47.1836 35.6849 46.6503 35.1647 46.2601 34.6445C45.896 34.0982 45.7139 33.643 45.7139 33.2788L46.9235 32.7716V35.6199C46.9235 36.2962 46.7024 36.8685 46.2601 37.3367C45.8179 37.7789 45.2587 38 44.5824 38C43.9061 38 43.3468 37.7789 42.9046 37.3367C42.4624 36.8945 42.2413 36.3222 42.2413 35.6199V11.1167C42.2413 10.4404 42.4624 9.88118 42.9046 9.43898C43.3468 8.97077 43.9061 8.73666 44.5824 8.73666C45.2587 8.73666 45.8179 8.97077 46.2601 9.43898C46.7024 9.88118 46.9235 10.4404 46.9235 11.1167V21.0273L46.2601 20.6761C46.2601 20.3379 46.4422 19.9348 46.8064 19.4666C47.1706 18.9723 47.6648 18.4911 48.2891 18.0229C48.9134 17.5287 49.6287 17.1255 50.4351 16.8133C51.2674 16.5012 52.1388 16.3451 53.0492 16.3451ZM52.464 20.6371C51.3195 20.6371 50.318 20.9232 49.4596 21.4955C48.6012 22.0677 47.9249 22.8481 47.4307 23.8365C46.9625 24.799 46.7284 25.9045 46.7284 27.1531C46.7284 28.3756 46.9625 29.4941 47.4307 30.5086C47.9249 31.497 48.6012 32.2774 49.4596 32.8496C50.318 33.4219 51.3195 33.708 52.464 33.708C53.6085 33.708 54.597 33.4219 55.4293 32.8496C56.2877 32.2774 56.951 31.497 57.4192 30.5086C57.9135 29.4941 58.1606 28.3756 58.1606 27.1531C58.1606 25.9045 57.9135 24.799 57.4192 23.8365C56.951 22.8481 56.2877 22.0677 55.4293 21.4955C54.597 20.9232 53.6085 20.6371 52.464 20.6371Z" fill="black"/>
<path d="M71.1507 35.2297C71.1507 35.906 70.9296 36.4783 70.4874 36.9465C70.0452 37.3887 69.486 37.6098 68.8097 37.6098C68.1334 37.6098 67.5741 37.3887 67.1319 36.9465C66.6897 36.4783 66.4686 35.906 66.4686 35.2297V19.1154C66.4686 18.4391 66.6897 17.8798 67.1319 17.4376C67.5741 16.9694 68.1334 16.7353 68.8097 16.7353C69.486 16.7353 70.0452 16.9694 70.4874 17.4376C70.9296 17.8798 71.1507 18.4391 71.1507 19.1154V35.2297Z" fill="black"/>
<path d="M81.035 35.2297C81.035 35.906 80.8009 36.4783 80.3327 36.9465C79.8905 37.3887 79.3313 37.6098 78.655 37.6098C78.0047 37.6098 77.4584 37.3887 77.0162 36.9465C76.574 36.4783 76.3529 35.906 76.3529 35.2297V11.1167C76.3529 10.4404 76.574 9.88118 77.0162 9.43898C77.4844 8.97077 78.0567 8.73666 78.733 8.73666C79.4093 8.73666 79.9556 8.97077 80.3717 9.43898C80.8139 9.88118 81.035 10.4404 81.035 11.1167V35.2297Z" fill="black"/>
<path d="M95.9307 38C93.7197 38 91.7948 37.5448 90.1561 36.6344C88.5433 35.6979 87.2948 34.4364 86.4104 32.8496C85.552 31.2629 85.1228 29.4681 85.1228 27.4652C85.1228 25.1241 85.591 23.1342 86.5274 21.4955C87.4899 19.8307 88.7384 18.5561 90.2731 17.6717C91.8078 16.7873 93.4336 16.3451 95.1503 16.3451C96.4769 16.3451 97.7255 16.6183 98.896 17.1645C100.093 17.7108 101.146 18.4651 102.056 19.4275C102.967 20.364 103.682 21.4565 104.202 22.705C104.749 23.9536 105.022 25.2802 105.022 26.6848C104.996 27.3091 104.749 27.8164 104.281 28.2065C103.812 28.5967 103.266 28.7918 102.642 28.7918H87.737L86.5664 24.89H100.886L100.028 25.6704V24.6169C99.9755 23.8626 99.7024 23.1862 99.2082 22.588C98.74 21.9897 98.1417 21.5215 97.4134 21.1833C96.7111 20.8192 95.9567 20.6371 95.1503 20.6371C94.37 20.6371 93.6417 20.7411 92.9653 20.9492C92.289 21.1573 91.7038 21.5085 91.2095 22.0027C90.7153 22.4969 90.3251 23.1602 90.039 23.9926C89.7529 24.825 89.6098 25.8785 89.6098 27.1531C89.6098 28.5577 89.896 29.7542 90.4682 30.7427C91.0665 31.7051 91.8208 32.4465 92.7312 32.9667C93.6677 33.4609 94.6561 33.708 95.6966 33.708C96.659 33.708 97.4264 33.63 97.9986 33.4739C98.5709 33.3179 99.0261 33.1358 99.3643 32.9277C99.7284 32.6936 100.054 32.4985 100.34 32.3424C100.808 32.1083 101.25 31.9913 101.666 31.9913C102.239 31.9913 102.707 32.1863 103.071 32.5765C103.461 32.9667 103.656 33.4219 103.656 33.9421C103.656 34.6445 103.292 35.2818 102.564 35.854C101.887 36.4263 100.938 36.9335 99.7154 37.3757C98.4929 37.7919 97.2313 38 95.9307 38Z" fill="black"/>
<path d="M109.347 17.1255H118.594C119.218 17.1255 119.738 17.3336 120.155 17.7498C120.571 18.166 120.779 18.6862 120.779 19.3105C120.779 19.9088 120.571 20.416 120.155 20.8322C119.738 21.2224 119.218 21.4174 118.594 21.4174H109.347C108.722 21.4174 108.202 21.2093 107.786 20.7932C107.37 20.377 107.162 19.8567 107.162 19.2324C107.162 18.6342 107.37 18.1399 107.786 17.7498C108.202 17.3336 108.722 17.1255 109.347 17.1255ZM113.522 12.2483C114.198 12.2483 114.744 12.4824 115.16 12.9506C115.603 13.3928 115.824 13.952 115.824 14.6283V31.9913C115.824 32.3554 115.889 32.6546 116.019 32.8887C116.175 33.1228 116.37 33.2919 116.604 33.3959C116.864 33.4999 117.137 33.552 117.423 33.552C117.736 33.552 118.022 33.4999 118.282 33.3959C118.542 33.2658 118.841 33.2008 119.179 33.2008C119.543 33.2008 119.869 33.3699 120.155 33.708C120.467 34.0462 120.623 34.5144 120.623 35.1127C120.623 35.841 120.22 36.4393 119.413 36.9075C118.633 37.3757 117.788 37.6098 116.877 37.6098C116.331 37.6098 115.72 37.5708 115.043 37.4928C114.393 37.3887 113.769 37.1676 113.17 36.8295C112.598 36.4653 112.117 35.919 111.727 35.1907C111.337 34.4624 111.142 33.4609 111.142 32.1863V14.6283C111.142 13.952 111.363 13.3928 111.805 12.9506C112.273 12.4824 112.845 12.2483 113.522 12.2483Z" fill="black"/>
<path d="M127.382 37.5708C126.628 37.5708 126.043 37.3757 125.626 36.9855C125.236 36.5693 125.041 35.9841 125.041 35.2297V34.5664C125.041 33.8121 125.236 33.2398 125.626 32.8497C126.043 32.4335 126.628 32.2254 127.382 32.2254H127.889C128.644 32.2254 129.216 32.4335 129.606 32.8497C130.022 33.2398 130.231 33.8121 130.231 34.5664V35.2297C130.231 35.9841 130.022 36.5693 129.606 36.9855C129.216 37.3757 128.644 37.5708 127.889 37.5708H127.382Z" fill="#1B75BC"/>
<path d="M137.372 37.6098C136.695 37.6098 136.136 37.3887 135.694 36.9465C135.252 36.4783 135.031 35.906 135.031 35.2297V19.1154C135.031 18.4391 135.252 17.8798 135.694 17.4376C136.136 16.9694 136.695 16.7353 137.372 16.7353C138.048 16.7353 138.607 16.9694 139.049 17.4376C139.492 17.8798 139.713 18.4391 139.713 19.1154V22.7831L139.44 20.1689C139.726 19.5446 140.09 18.9983 140.532 18.5301C141 18.0359 141.521 17.6327 142.093 17.3206C142.665 16.9824 143.276 16.7353 143.927 16.5792C144.577 16.4232 145.227 16.3451 145.878 16.3451C146.658 16.3451 147.308 16.5662 147.828 17.0084C148.375 17.4506 148.648 17.9709 148.648 18.5691C148.648 19.4275 148.427 20.0518 147.985 20.442C147.542 20.8062 147.061 20.9882 146.541 20.9882C146.047 20.9882 145.591 20.8972 145.175 20.7151C144.785 20.533 144.33 20.442 143.81 20.442C143.341 20.442 142.86 20.5591 142.366 20.7932C141.898 21.0013 141.456 21.3394 141.039 21.8076C140.649 22.2758 140.324 22.8611 140.064 23.5634C139.83 24.2397 139.713 25.0461 139.713 25.9825V35.2297C139.713 35.906 139.492 36.4783 139.049 36.9465C138.607 37.3887 138.048 37.6098 137.372 37.6098Z" fill="#1B75BC"/>
<path d="M167.439 16.7353C168.115 16.7353 168.674 16.9694 169.116 17.4376C169.559 17.8798 169.78 18.4391 169.78 19.1154V29.0259C169.78 31.7832 169.012 33.9682 167.478 35.5809C165.943 37.1936 163.732 38 160.845 38C157.957 38 155.746 37.1936 154.212 35.5809C152.703 33.9682 151.949 31.7832 151.949 29.0259V19.1154C151.949 18.4391 152.17 17.8798 152.612 17.4376C153.054 16.9694 153.613 16.7353 154.29 16.7353C154.966 16.7353 155.525 16.9694 155.967 17.4376C156.41 17.8798 156.631 18.4391 156.631 19.1154V29.0259C156.631 30.6126 156.982 31.7962 157.684 32.5765C158.386 33.3309 159.44 33.708 160.845 33.708C162.275 33.708 163.342 33.3309 164.044 32.5765C164.746 31.7962 165.098 30.6126 165.098 29.0259V19.1154C165.098 18.4391 165.319 17.8798 165.761 17.4376C166.203 16.9694 166.762 16.7353 167.439 16.7353Z" fill="#1B75BC"/>
<path d="M70.9493 7.15082C71.1312 6.69754 71.4447 6.30913 71.8494 6.03568C73.7268 4.76705 76.1706 6.51404 75.5778 8.70098L75.4718 9.09205C75.3843 9.41481 75.2353 9.71762 75.0329 9.98382L71.0365 15.2402C70.7148 15.6634 70.2014 15.8957 69.6712 15.8581C68.606 15.7825 67.9232 14.6914 68.3209 13.7003L70.9493 7.15082Z" fill="#1B75BC"/>
</svg>
