<?xml version="1.0" encoding="UTF-8"?>
<!DOCTYPE svg PUBLIC "-//W3C//DTD SVG 1.1//EN" "http://www.w3.org/Graphics/SVG/1.1/DTD/svg11.dtd">
<!-- Creator: CorelDRAW 2020 (64-Bit) -->
<svg xmlns="http://www.w3.org/2000/svg" xml:space="preserve" width="5.0798mm" height="5.0798mm" version="1.1" style="shape-rendering:geometricPrecision; text-rendering:geometricPrecision; image-rendering:optimizeQuality; fill-rule:evenodd; clip-rule:evenodd"
viewBox="0 0 507.98 507.98"
 xmlns:xlink="http://www.w3.org/1999/xlink"
 xmlns:xodm="http://www.corel.com/coreldraw/odm/2003">
 <defs>
  <style type="text/css">
   <![CDATA[
    .fil0 {fill:#3EB6F7}
   ]]>
  </style>
 </defs>
 <g id="Слой_x0020_1">
  <metadata id="CorelCorpID_0Corel-Layer"/>
  <path class="fil0" d="M498.66 453.68l-98.69 -98.09 -0.33 0c29.05,-38.39 44.77,-85.21 44.77,-133.35 0,-122.55 -99.69,-222.23 -222.23,-222.23 -122.49,0 -222.18,99.68 -222.18,222.23 0,122.55 99.69,222.23 222.21,222.23 50.16,0 96.19,-16.82 133.33,-44.76l0 0.32 98.07 98.73c6.35,6.36 14.29,9.21 22.55,9.21 8.24,0 16.19,-3.18 22.53,-9.21 12.39,-12.37 12.39,-32.7 0,-45.08l-0.03 0zm-276.42 -72.7c-87.62,0 -158.74,-71.11 -158.74,-158.74 0,-87.62 71.12,-158.73 158.74,-158.73 87.62,0 158.73,71.11 158.73,158.73 0,87.63 -71.11,158.74 -158.73,158.74z"/>
 </g>
</svg>
