<?xml version="1.0" encoding="UTF-8"?>
<!DOCTYPE svg PUBLIC "-//W3C//DTD SVG 1.1//EN" "http://www.w3.org/Graphics/SVG/1.1/DTD/svg11.dtd">
<!-- Creator: CorelDRAW 2020 (64-Bit) -->
<svg xmlns="http://www.w3.org/2000/svg" xml:space="preserve" width="4.2332mm" height="4.2332mm" version="1.1" style="shape-rendering:geometricPrecision; text-rendering:geometricPrecision; image-rendering:optimizeQuality; fill-rule:evenodd; clip-rule:evenodd"
viewBox="0 0 423.32 423.32"
 xmlns:xlink="http://www.w3.org/1999/xlink"
 xmlns:xodm="http://www.corel.com/coreldraw/odm/2003">
 <defs>
  <style type="text/css">
   <![CDATA[
    .fil0 {fill:#9D9E9E}
   ]]>
  </style>
 </defs>
 <g id="Слой_x0020_1">
  <metadata id="CorelCorpID_0Corel-Layer"/>
  <path class="fil0" d="M407.9 385.74l-82.25 -81.75 -0.27 0c24.21,-31.99 37.31,-71.01 37.31,-111.12 0,-102.13 -83.08,-185.21 -185.2,-185.21 -102.08,0 -185.16,83.08 -185.16,185.21 0,102.12 83.08,185.2 185.19,185.2 41.79,0 80.15,-14.02 111.11,-37.31l0 0.27 81.73 82.28c5.29,5.3 11.91,7.68 18.79,7.68 6.87,0 13.49,-2.65 18.78,-7.68 10.32,-10.31 10.32,-27.25 0,-37.57l-0.03 0zm-230.36 -60.59c-73.02,0 -132.29,-59.26 -132.29,-132.28 0,-73.02 59.27,-132.29 132.29,-132.29 73.02,0 132.28,59.27 132.28,132.29 0,73.02 -59.26,132.28 -132.28,132.28z"/>
 </g>
</svg>
