<svg width="70" height="57" viewBox="0 0 70 57" fill="none" xmlns="http://www.w3.org/2000/svg">
<g clip-path="url(#clip0_2_448)">
<path d="M17.3355 49.4751V46.655C17.3519 46.4178 17.3176 46.1798 17.2349 45.9569C17.1521 45.7341 17.0229 45.5314 16.8556 45.3624C16.6884 45.1934 16.4871 45.0619 16.2651 44.9768C16.0431 44.8917 15.8055 44.8549 15.5682 44.8689C15.2575 44.8485 14.9471 44.9119 14.6693 45.0524C14.3915 45.193 14.1565 45.4055 13.9889 45.6679C13.8361 45.4134 13.6175 45.2049 13.3561 45.0642C13.0947 44.9236 12.8002 44.8561 12.5036 44.8689C12.2451 44.8558 11.9877 44.9105 11.7568 45.0276C11.526 45.1446 11.3297 45.32 11.1875 45.5363V44.9817H10.2099V49.4751H11.1969V47.0028C11.1759 46.8491 11.1891 46.6927 11.2356 46.5448C11.2821 46.3968 11.3607 46.2609 11.4657 46.1469C11.5708 46.0328 11.6998 45.9434 11.8435 45.8849C11.9871 45.8265 12.1419 45.8006 12.2968 45.8089C12.9454 45.8089 13.2744 46.2319 13.2744 46.9934V49.4939H14.2615V47.0028C14.2414 46.8493 14.2552 46.6932 14.302 46.5456C14.3488 46.398 14.4274 46.2625 14.5323 46.1487C14.6372 46.0348 14.7658 45.9454 14.9091 45.8866C15.0523 45.8279 15.2067 45.8014 15.3614 45.8089C16.0288 45.8089 16.3484 46.2319 16.3484 46.9934V49.4939L17.3355 49.4751ZM31.9392 44.9817H30.3317V43.6186H29.3447V44.9817H28.4516V45.8747H29.3635V47.9428C29.3635 48.9863 29.7677 49.6067 30.924 49.6067C31.356 49.6082 31.7796 49.4876 32.146 49.2589L31.864 48.4223C31.6018 48.5786 31.3043 48.666 30.9992 48.6761C30.5291 48.6761 30.3505 48.3753 30.3505 47.924V45.8747H31.9486L31.9392 44.9817ZM40.2775 44.8689C40.0391 44.8618 39.8033 44.9193 39.5948 45.0351C39.3864 45.1509 39.213 45.3208 39.093 45.5269V44.9817H38.1248V49.4751H39.1024V46.9558C39.1024 46.2131 39.4221 45.7995 40.0425 45.7995C40.2516 45.7967 40.4592 45.835 40.6535 45.9123L40.9543 44.9723C40.7311 44.8924 40.4958 44.8511 40.2587 44.8501L40.2775 44.8689ZM27.6714 45.3389C27.118 45.0099 26.4817 44.8467 25.8383 44.8689C24.7008 44.8689 23.9582 45.4141 23.9582 46.3071C23.9582 47.0404 24.5034 47.4916 25.5093 47.6326L25.9793 47.6984C26.5151 47.7736 26.7689 47.9146 26.7689 48.1684C26.7689 48.5163 26.4117 48.7137 25.7443 48.7137C25.2074 48.7292 24.6809 48.5637 24.2496 48.2437L23.7796 49.0051C24.349 49.4027 25.0312 49.607 25.7255 49.5879C27.0227 49.5879 27.7748 48.9769 27.7748 48.1214C27.7748 47.266 27.1826 46.9182 26.2049 46.7772L25.7349 46.7114C25.3118 46.655 24.9734 46.5704 24.9734 46.2695C24.9734 45.9687 25.293 45.7431 25.8289 45.7431C26.3241 45.7489 26.8096 45.8816 27.239 46.1285L27.6714 45.3389ZM53.8566 44.8689C53.6182 44.8618 53.3824 44.9193 53.1739 45.0351C52.9655 45.1509 52.7921 45.3208 52.6721 45.5269V44.9817H51.7039V49.4751H52.6815V46.9558C52.6815 46.2131 53.0011 45.7995 53.6216 45.7995C53.8307 45.7967 54.0383 45.835 54.2326 45.9123L54.5334 44.9723C54.3102 44.8924 54.0749 44.8511 53.8378 44.8501L53.8566 44.8689ZM41.2599 47.219C41.2482 47.5348 41.3027 47.8495 41.4196 48.143C41.5366 48.4366 41.7136 48.7024 41.9392 48.9236C42.1649 49.1449 42.4342 49.3165 42.73 49.4277C43.0258 49.5388 43.3415 49.587 43.657 49.5691C44.244 49.599 44.8209 49.4078 45.2739 49.0333L44.8039 48.2437C44.4659 48.5014 44.0538 48.6431 43.6288 48.6479C43.2674 48.6186 42.9303 48.4544 42.6845 48.1879C42.4387 47.9214 42.3022 47.5722 42.3022 47.2096C42.3022 46.847 42.4387 46.4978 42.6845 46.2313C42.9303 45.9648 43.2674 45.8005 43.6288 45.7713C44.0538 45.776 44.4659 45.9178 44.8039 46.1755L45.2739 45.3859C44.8209 45.0114 44.244 44.8202 43.657 44.8501C43.3415 44.8322 43.0258 44.8804 42.73 44.9915C42.4342 45.1027 42.1649 45.2743 41.9392 45.4955C41.7136 45.7168 41.5366 45.9826 41.4196 46.2762C41.3027 46.5697 41.2482 46.8844 41.2599 47.2002V47.219ZM50.416 47.219V44.9817H49.4383V45.5269C49.2723 45.3133 49.0579 45.1422 48.8127 45.0278C48.5675 44.9134 48.2986 44.8589 48.0283 44.8689C47.405 44.8689 46.8072 45.1165 46.3665 45.5572C45.9257 45.9979 45.6781 46.5957 45.6781 47.219C45.6781 47.8423 45.9257 48.4401 46.3665 48.8808C46.8072 49.3215 47.405 49.5691 48.0283 49.5691C48.2986 49.5791 48.5675 49.5246 48.8127 49.4102C49.0579 49.2958 49.2723 49.1247 49.4383 48.9111V49.4563H50.416V47.219ZM46.778 47.219C46.7936 46.9545 46.8862 46.7003 47.0444 46.4878C47.2026 46.2753 47.4195 46.1136 47.6684 46.0228C47.9173 45.932 48.1874 45.916 48.4453 45.9767C48.7032 46.0374 48.9377 46.1722 49.12 46.3645C49.3022 46.5568 49.4243 46.7982 49.471 47.059C49.5178 47.3198 49.4873 47.5886 49.3833 47.8323C49.2793 48.076 49.1062 48.2839 48.8855 48.4305C48.6648 48.5771 48.406 48.6559 48.1411 48.6573C47.955 48.6596 47.7704 48.6234 47.5989 48.551C47.4275 48.4786 47.2729 48.3714 47.1449 48.2363C47.0168 48.1012 46.9182 47.9411 46.855 47.766C46.7919 47.591 46.7657 47.4047 46.778 47.219ZM34.9803 44.8689C34.357 44.8776 33.7627 45.1336 33.3281 45.5805C32.8936 46.0274 32.6543 46.6286 32.6631 47.2519C32.6718 47.8752 32.9278 48.4695 33.3747 48.9041C33.8216 49.3386 34.4228 49.5779 35.0461 49.5691C35.7224 49.6038 36.3874 49.3861 36.9121 48.9581L36.4421 48.2343C36.0709 48.5319 35.6111 48.6973 35.1354 48.7043C34.8122 48.7321 34.491 48.6327 34.2399 48.4273C33.9889 48.2219 33.8279 47.9267 33.7911 47.6044H37.1283C37.1283 47.4822 37.1283 47.36 37.1283 47.2284C37.1283 45.8183 36.2541 44.8783 34.9944 44.8783L34.9803 44.8689ZM34.9803 45.7431C35.1266 45.74 35.2721 45.7657 35.4084 45.8188C35.5448 45.872 35.6693 45.9514 35.775 46.0527C35.8806 46.154 35.9652 46.275 36.024 46.409C36.0829 46.543 36.1147 46.6873 36.1178 46.8336H33.7676C33.7847 46.5318 33.9191 46.2488 34.1423 46.045C34.3654 45.8411 34.6595 45.7328 34.9615 45.7431H34.9803ZM59.4734 47.2284V43.1768H58.5334V45.5269C58.3673 45.3133 58.1529 45.1422 57.9077 45.0278C57.6625 44.9134 57.3937 44.8589 57.1233 44.8689C56.5 44.8689 55.9022 45.1165 55.4615 45.5572C55.0208 45.9979 54.7732 46.5957 54.7732 47.219C54.7732 47.8423 55.0208 48.4401 55.4615 48.8808C55.9022 49.3215 56.5 49.5691 57.1233 49.5691C57.3937 49.5791 57.6625 49.5246 57.9077 49.4102C58.1529 49.2958 58.3673 49.1247 58.5334 48.9111V49.4563H59.4734V47.2284ZM61.1044 48.8218C61.1655 48.821 61.2262 48.8322 61.283 48.8547C61.337 48.8767 61.3864 48.9086 61.4287 48.9487C61.47 48.9892 61.5035 49.037 61.5274 49.0897C61.5512 49.1446 61.5635 49.2038 61.5635 49.2636C61.5635 49.3234 61.5512 49.3826 61.5274 49.4375C61.5035 49.4902 61.47 49.538 61.4287 49.5785C61.3864 49.6186 61.337 49.6505 61.283 49.6725C61.2268 49.6974 61.1659 49.7102 61.1044 49.7101C61.0153 49.7095 60.9282 49.6835 60.8533 49.6352C60.7785 49.5869 60.7188 49.5184 60.6814 49.4375C60.6579 49.3826 60.6457 49.3234 60.6457 49.2636C60.6457 49.2038 60.6579 49.1447 60.6814 49.0897C60.7053 49.037 60.7388 48.9892 60.7801 48.9487C60.8224 48.9086 60.8718 48.8767 60.9258 48.8547C60.987 48.8303 61.0527 48.8191 61.1185 48.8218H61.1044ZM61.1044 49.6161C61.1513 49.6164 61.1978 49.6068 61.2407 49.5879C61.2812 49.5699 61.3178 49.5444 61.3488 49.5127C61.4076 49.4486 61.4402 49.3647 61.4402 49.2777C61.4402 49.1907 61.4076 49.1068 61.3488 49.0427C61.3179 49.011 61.2812 48.9854 61.2407 48.9675C61.1977 48.9487 61.1513 48.9391 61.1044 48.9393C61.0576 48.9395 61.0112 48.9491 60.9681 48.9675C60.9259 48.9848 60.8875 49.0104 60.8553 49.0427C60.7965 49.1068 60.7639 49.1907 60.7639 49.2777C60.7639 49.3647 60.7965 49.4486 60.8553 49.5127C60.8876 49.5449 60.9259 49.5705 60.9681 49.5879C61.0155 49.6084 61.0669 49.618 61.1185 49.6161H61.1044ZM61.1326 49.0568C61.1765 49.0547 61.2197 49.068 61.2548 49.0944C61.2692 49.1063 61.2806 49.1215 61.2879 49.1386C61.2953 49.1558 61.2984 49.1745 61.2971 49.1931C61.2978 49.2087 61.2952 49.2243 61.2896 49.2389C61.2839 49.2534 61.2753 49.2667 61.2642 49.2777C61.237 49.3025 61.2022 49.3174 61.1655 49.32L61.3018 49.4751H61.1937L61.0668 49.32H61.0245V49.4751H60.9352V49.0615L61.1326 49.0568ZM61.0292 49.1367V49.2495H61.1326C61.151 49.255 61.1706 49.255 61.189 49.2495C61.1923 49.2429 61.194 49.2357 61.194 49.2284C61.194 49.221 61.1923 49.2138 61.189 49.2072C61.1923 49.2006 61.194 49.1934 61.194 49.1861C61.194 49.1787 61.1923 49.1715 61.189 49.1649C61.1706 49.1594 61.151 49.1594 61.1326 49.1649L61.0292 49.1367ZM55.8589 47.2284C55.8745 46.9639 55.9671 46.7097 56.1253 46.4972C56.2835 46.2847 56.5004 46.123 56.7494 46.0322C56.9983 45.9414 57.2683 45.9254 57.5262 45.9861C57.7841 46.0468 58.0186 46.1816 58.2009 46.3739C58.3831 46.5662 58.5052 46.8076 58.552 47.0684C58.5988 47.3292 58.5683 47.598 58.4642 47.8417C58.3602 48.0854 58.1871 48.2933 57.9664 48.4399C57.7457 48.5865 57.4869 48.6653 57.222 48.6667C57.0359 48.669 56.8513 48.6328 56.6799 48.5604C56.5084 48.488 56.3538 48.3808 56.2258 48.2457C56.0978 48.1106 55.9991 47.9505 55.9359 47.7754C55.8728 47.6004 55.8466 47.4141 55.8589 47.2284ZM22.8489 47.2284V44.9817H21.8712V45.5269C21.7052 45.3133 21.4908 45.1422 21.2456 45.0278C21.0004 44.9134 20.7315 44.8589 20.4612 44.8689C19.8379 44.8689 19.2401 45.1165 18.7994 45.5572C18.3586 45.9979 18.111 46.5957 18.111 47.219C18.111 47.8423 18.3586 48.4401 18.7994 48.8808C19.2401 49.3215 19.8379 49.5691 20.4612 49.5691C20.7315 49.5791 21.0004 49.5246 21.2456 49.4102C21.4908 49.2958 21.7052 49.1247 21.8712 48.9111V49.4563H22.8489V47.2284ZM19.2109 47.2284C19.2265 46.9639 19.3191 46.7097 19.4773 46.4972C19.6355 46.2847 19.8524 46.123 20.1013 46.0322C20.3502 45.9414 20.6203 45.9254 20.8782 45.9861C21.1361 46.0468 21.3706 46.1816 21.5529 46.3739C21.7351 46.5662 21.8572 46.8076 21.9039 47.0684C21.9507 47.3292 21.9202 47.598 21.8162 47.8417C21.7122 48.0854 21.5391 48.2933 21.3184 48.4399C21.0977 48.5865 20.8389 48.6653 20.574 48.6667C20.3871 48.6703 20.2015 48.6351 20.0289 48.5633C19.8563 48.4914 19.7006 48.3845 19.5716 48.2492C19.4425 48.114 19.343 47.9534 19.2793 47.7777C19.2156 47.602 19.1891 47.4149 19.2015 47.2284H19.2109Z" fill="#231F20"/>
<path d="M42.1529 10.7402H27.3471V37.3485H42.1529V10.7402Z" fill="#FF5F00"/>
<path d="M28.2871 24.0466C28.2844 21.4837 28.8649 18.9537 29.9846 16.6483C31.1043 14.343 32.7339 12.3226 34.75 10.7402C32.2538 8.77837 29.2559 7.55845 26.0991 7.21982C22.9424 6.88119 19.754 7.43753 16.8984 8.82523C14.0429 10.2129 11.6353 12.376 9.95099 15.0673C8.26664 17.7585 7.37341 20.8694 7.37341 24.0443C7.37341 27.2192 8.26664 30.33 9.95099 33.0213C11.6353 35.7125 14.0429 37.8756 16.8984 39.2633C19.754 40.651 22.9424 41.2074 26.0991 40.8687C29.2559 40.5301 32.2538 39.3102 34.75 37.3484C32.7345 35.7665 31.1053 33.7469 29.9856 31.4423C28.8659 29.1378 28.2851 26.6088 28.2871 24.0466Z" fill="#EB001B"/>
<path d="M62.1291 24.0466C62.129 27.2218 61.2356 30.3328 59.5509 33.0242C57.8663 35.7155 55.4584 37.8786 52.6025 39.2661C49.7465 40.6536 46.5579 41.2095 43.4009 40.8704C40.2439 40.5313 37.2461 39.3108 34.75 37.3484C36.7647 35.7651 38.3934 33.7449 39.5134 31.4402C40.6334 29.1356 41.2154 26.6067 41.2154 24.0443C41.2154 21.4819 40.6334 18.953 39.5134 16.6483C38.3934 14.3437 36.7647 12.3235 34.75 10.7402C37.2461 8.77776 40.2439 7.55724 43.4009 7.21813C46.5579 6.87902 49.7465 7.43499 52.6025 8.8225C55.4584 10.21 57.8663 12.3731 59.5509 15.0644C61.2356 17.7558 62.129 20.8668 62.1291 24.0419V24.0466Z" fill="#F79E1B"/>
<path d="M60.5122 34.5282V33.9829H60.7331V33.8701H60.1738V33.9829H60.4135V34.5282H60.5122ZM61.598 34.5282V33.8701H61.4287L61.2313 34.3401L61.0339 33.8701H60.8835V34.5282H61.0057V34.0346L61.189 34.4624H61.3159L61.4992 34.0346V34.5329L61.598 34.5282Z" fill="#F79E1B"/>
</g>
<defs>
<clipPath id="clip0_2_448">
<rect width="69" height="56.596" fill="white" transform="translate(0.25)"/>
</clipPath>
</defs>
</svg>
