<?xml version="1.0" encoding="UTF-8"?>
<!DOCTYPE svg PUBLIC "-//W3C//DTD SVG 1.1//EN" "http://www.w3.org/Graphics/SVG/1.1/DTD/svg11.dtd">
<!-- Creator: CorelDRAW 2020 (64-Bit) -->
<svg xmlns="http://www.w3.org/2000/svg" xml:space="preserve" width="7.8054mm" height="7.8054mm" version="1.1" style="shape-rendering:geometricPrecision; text-rendering:geometricPrecision; image-rendering:optimizeQuality; fill-rule:evenodd; clip-rule:evenodd"
viewBox="0 0 780.54 780.54"
 xmlns:xlink="http://www.w3.org/1999/xlink"
 xmlns:xodm="http://www.corel.com/coreldraw/odm/2003">
 <defs>
  <style type="text/css">
   <![CDATA[
    .fil0 {fill:#F4018F}
   ]]>
  </style>
    <clipPath id="id0">
     <path d="M159.85 76.42l444.74 0c33.2,23.05 62.63,51.12 87.24,83.11l0 475.16c-68.07,88.33 -183.59,149.43 -295.14,152.15l-17.65 0.43c-82.35,0.5 -188.22,-39.07 -241.01,-89.39l-1.81 -603.69c7.64,-6.21 15.53,-12.14 23.63,-17.77z"/>
    </clipPath>
 </defs>
 <g id="Слой_x0020_1">
  <metadata id="CorelCorpID_0Corel-Layer"/>
  <g id="_2331961868288">
   <path class="fil0" d="M382.55 7.71c215.53,0 390.32,174.67 390.32,390.25 0,215.5 -174.79,390.19 -390.32,390.19 -215.52,0 -390.21,-174.69 -390.21,-390.19 0,-215.58 174.69,-390.25 390.21,-390.25z"/>
   <g style="clip-path:url(#id0)">
    <image x="136.21" y="76.43" width="555.6" height="708.52" xlink:href="pk_logo_Images\pk_logo_ImgID1.png"/>
   </g>
  </g>
 </g>
</svg>
