<svg width="8" height="6" viewBox="0 0 8 6" fill="none" xmlns="http://www.w3.org/2000/svg">
<path d="M3.09663 5.078L0.231626 1.64C0.110017 1.494 0.0325218 1.31637 0.00821571 1.12792C-0.0160903 0.939464 0.0137986 0.747986 0.0943826 0.575906C0.174966 0.403825 0.30291 0.258266 0.46323 0.156272C0.62355 0.0542776 0.809612 7.12268e-05 0.999626 0H6.72963C6.91964 7.12268e-05 7.1057 0.0542776 7.26602 0.156272C7.42634 0.258266 7.55429 0.403825 7.63487 0.575906C7.71545 0.747986 7.74534 0.939464 7.72104 1.12792C7.69673 1.31637 7.61924 1.494 7.49763 1.64L4.63263 5.078C4.53878 5.19054 4.42134 5.28108 4.28862 5.34321C4.15591 5.40534 4.01116 5.43755 3.86463 5.43755C3.71809 5.43755 3.57334 5.40534 3.44063 5.34321C3.30791 5.28108 3.19048 5.19054 3.09663 5.078Z" fill="black"/>
</svg>
