<?xml version="1.0" encoding="UTF-8"?>
<!DOCTYPE svg PUBLIC "-//W3C//DTD SVG 1.1//EN" "http://www.w3.org/Graphics/SVG/1.1/DTD/svg11.dtd">
<!-- Creator: CorelDRAW 2020 (64-Bit) -->
<svg xmlns="http://www.w3.org/2000/svg" xml:space="preserve" width="19.0838mm" height="8.5512mm" version="1.1" style="shape-rendering:geometricPrecision; text-rendering:geometricPrecision; image-rendering:optimizeQuality; fill-rule:evenodd; clip-rule:evenodd"
viewBox="0 0 1908.38 855.12"
 xmlns:xlink="http://www.w3.org/1999/xlink"
 xmlns:xodm="http://www.corel.com/coreldraw/odm/2003">
 <defs>
  <style type="text/css">
   <![CDATA[
    .fil0 {fill:#3EB6F7}
    .fil1 {fill:white}
    .fil2 {fill:white;fill-rule:nonzero}
   ]]>
  </style>
 </defs>
 <g id="Слой_x0020_1">
  <metadata id="CorelCorpID_0Corel-Layer"/>
  <g id="_2239507913952">
   <g>
    <path class="fil0" d="M426.81 0c235.76,0 426.95,191.09 426.95,426.92 0,235.76 -191.19,426.85 -426.95,426.85 -235.75,0 -426.83,-191.09 -426.83,-426.85 0,-235.83 191.08,-426.92 426.83,-426.92z"/>
    <path class="fil1" d="M348.28 522.56c71.2,71.2 124.93,104.65 164.93,118.96 40.92,14.64 66.71,8.97 80.19,4.43 7.69,-2.6 13.7,-7.84 17.97,-12.4 4.48,-4.8 8.51,-10.46 11.99,-16.01 6.96,-11.12 12.9,-23.72 16.92,-32.99 7.61,-17.55 0.25,-36.98 -15.14,-46.21l-74.18 -44.52c-14.87,-8.91 -33.91,-6.57 -46.17,5.7l-13.83 13.83c-14.22,-7.14 -42.06,-23.8 -75.92,-57.64 -33.84,-33.86 -50.49,-61.7 -57.63,-75.92l13.83 -13.83c12.27,-12.27 14.62,-31.31 5.69,-46.18l-44.51 -74.19c-9.23,-15.38 -28.65,-22.75 -46.2,-15.13 -9.28,4.01 -21.87,9.95 -32.99,16.91 -5.55,3.48 -11.2,7.51 -16.01,12 -4.56,4.26 -9.8,10.27 -12.39,17.97 -4.55,13.48 -10.22,39.26 4.43,80.19 14.31,40.01 47.75,93.74 118.94,164.96l0.08 0.07z"/>
   </g>
   <g>
    <path class="fil0" d="M1481.45 1.33c235.75,0 426.95,191.09 426.95,426.92 0,235.76 -191.2,426.86 -426.95,426.86 -235.75,0 -426.83,-191.1 -426.83,-426.86 0,-235.83 191.08,-426.92 426.83,-426.92z"/>
    <g>
     <polygon class="fil2" points="1692.14,275.6 1269.09,275.6 1480.61,446.56 "/>
     <path class="fil2" d="M1484.06 457.78c-0.85,0.86 -2.58,0.86 -3.45,0.86 -0.86,0 -2.59,0 -3.45,-0.86l-217.56 -176.14 0 285.8 442.9 0 0 -285.8 -218.44 176.14z"/>
    </g>
   </g>
  </g>
 </g>
</svg>
