<?xml version="1.0" encoding="UTF-8"?>
<!DOCTYPE svg PUBLIC "-//W3C//DTD SVG 1.1//EN" "http://www.w3.org/Graphics/SVG/1.1/DTD/svg11.dtd">
<!-- Creator: CorelDRAW 2020 (64-Bit) -->
<svg xmlns="http://www.w3.org/2000/svg" xml:space="preserve" width="4.3238mm" height="4.3238mm" version="1.1" style="shape-rendering:geometricPrecision; text-rendering:geometricPrecision; image-rendering:optimizeQuality; fill-rule:evenodd; clip-rule:evenodd"
viewBox="0 0 432.38 432.38"
 xmlns:xlink="http://www.w3.org/1999/xlink"
 xmlns:xodm="http://www.corel.com/coreldraw/odm/2003">
 <defs>
  <style type="text/css">
   <![CDATA[
    .fil0 {fill:#3EB6F7}
   ]]>
  </style>
 </defs>
 <g id="Слой_x0020_1">
  <metadata id="CorelCorpID_0Corel-Layer"/>
  <path class="fil0" d="M131.15 301.31c72.7,72.68 127.55,106.83 168.39,121.44 41.78,14.95 68.11,9.16 81.87,4.52 7.86,-2.65 13.99,-8 18.35,-12.65 4.58,-4.91 8.69,-10.68 12.24,-16.35 7.11,-11.35 13.17,-24.21 17.28,-33.68 7.77,-17.92 0.25,-37.75 -15.46,-47.17l-75.74 -45.45c-15.18,-9.1 -34.62,-6.71 -47.14,5.81l-14.12 14.12c-14.52,-7.29 -42.94,-24.29 -77.5,-58.84 -34.55,-34.56 -51.55,-62.98 -58.84,-77.5l14.12 -14.12c12.52,-12.52 14.92,-31.96 5.81,-47.14l-45.45 -75.74c-9.42,-15.7 -29.25,-23.23 -47.17,-15.45 -9.47,4.1 -22.33,10.16 -33.68,17.27 -5.67,3.55 -11.44,7.66 -16.35,12.25 -4.65,4.35 -10,10.48 -12.65,18.34 -4.64,13.76 -10.43,40.08 4.52,81.87 14.61,40.84 48.76,95.69 121.44,168.39l0.08 0.08z"/>
 </g>
</svg>
