<svg width="17" height="17" viewBox="0 0 17 17" fill="none" xmlns="http://www.w3.org/2000/svg">
<path fill-rule="evenodd" clip-rule="evenodd" d="M5.2821 11.7136C8.02974 14.4607 10.1034 15.7513 11.6469 16.3036C13.2261 16.8688 14.221 16.6499 14.7411 16.4746C15.0383 16.3743 15.27 16.1722 15.4345 15.9963C15.6079 15.8108 15.7632 15.5925 15.8973 15.3784C16.1659 14.9494 16.3949 14.4634 16.5503 14.1054C16.844 13.4282 16.5597 12.6787 15.966 12.3225L13.1035 10.605C12.5296 10.2607 11.7951 10.3511 11.3219 10.8243L10.788 11.3582C10.2395 11.0825 9.1652 10.4402 7.85875 9.1341C6.55264 7.82765 5.91035 6.75338 5.63464 6.20488L6.16856 5.67097C6.64176 5.19776 6.73218 4.46324 6.38788 3.88939L4.67036 1.02686C4.31415 0.433181 3.56461 0.148856 2.88749 0.442615C2.52948 0.597933 2.04344 0.826986 1.61447 1.09561C1.40033 1.22972 1.18208 1.38495 0.99659 1.55835C0.820689 1.72279 0.618532 1.9545 0.518337 2.25173C0.343 2.77188 0.124067 3.76668 0.689218 5.34598C1.24157 6.88949 2.53216 8.96311 5.27926 11.7107L5.2821 11.7136Z" fill="#1B75BC"/>
</svg>
