<?xml version="1.0" encoding="UTF-8"?>
<!DOCTYPE svg PUBLIC "-//W3C//DTD SVG 1.1//EN" "http://www.w3.org/Graphics/SVG/1.1/DTD/svg11.dtd">
<!-- Creator: CorelDRAW 2020 (64-Bit) -->
<svg xmlns="http://www.w3.org/2000/svg" xml:space="preserve" width="76.2mm" height="76.2mm" version="1.1" style="shape-rendering:geometricPrecision; text-rendering:geometricPrecision; image-rendering:optimizeQuality; fill-rule:evenodd; clip-rule:evenodd"
viewBox="0 0 7620 7620"
 xmlns:xlink="http://www.w3.org/1999/xlink"
 xmlns:xodm="http://www.corel.com/coreldraw/odm/2003">
 <defs>
  <style type="text/css">
   <![CDATA[
    .fil1 {fill:#FEFEFE;fill-rule:nonzero}
    .fil0 {fill:#3EB6F7;fill-rule:nonzero}
   ]]>
  </style>
 </defs>
 <g id="Слой_x0020_1">
  <metadata id="CorelCorpID_0Corel-Layer"/>
  <g id="_1754496112912">
   <path class="fil0" d="M3809.91 118.53c-2038.64,0 -3691.38,1652.77 -3691.38,3691.57 0,2038.77 1652.74,3691.37 3691.38,3691.37 2038.79,0 3691.56,-1652.6 3691.56,-3691.37 0,-2038.8 -1652.77,-3691.57 -3691.56,-3691.57z"/>
   <path class="fil1" d="M5104.75 2515.23c0,715.23 -579.81,1294.87 -1294.84,1294.87 -715.05,0 -1294.68,-579.64 -1294.68,-1294.87 0,-715.04 579.63,-1294.68 1294.68,-1294.68 715.03,0 1294.84,579.64 1294.84,1294.68z"/>
   <path class="fil1" d="M5991.52 5842.23l0 222.66c-117.81,113.74 -244.32,218.58 -378.45,313.06 -510.16,358.81 -1132.02,569.64 -1803.16,569.64 -671.15,0 -1293.02,-210.83 -1803.2,-569.64 -134.1,-94.48 -260.64,-199.13 -378.06,-312.87l0 -222.85c0,-826.57 916.42,-1644.43 2181.26,-1644.43 1294.84,0 2181.61,817.86 2181.61,1644.43z"/>
  </g>
 </g>
</svg>
