<svg width="79" height="26" viewBox="0 0 79 26" fill="none" xmlns="http://www.w3.org/2000/svg">
<g clip-path="url(#clip0_2_440)">
<path d="M34.4249 24.8798H28.1064L32.0585 0.443115H38.3767L34.4249 24.8798Z" fill="#00579F"/>
<path d="M57.3302 1.04036C56.0839 0.545924 54.1072 0 51.663 0C45.4232 0 41.0292 3.32737 41.0023 8.08451C40.9504 11.5943 44.1482 13.5437 46.5399 14.714C48.9845 15.9099 49.8155 16.6904 49.8155 17.7563C49.7906 19.3934 47.8401 20.148 46.021 20.148C43.4983 20.148 42.1466 19.759 40.0925 18.8482L39.2605 18.4577L38.3763 23.9432C39.8583 24.6184 42.5886 25.2175 45.4232 25.2438C52.0531 25.2438 56.3693 21.9679 56.4205 16.8984C56.4457 14.1166 54.7571 11.9851 51.1167 10.2433C48.9068 9.12522 47.5534 8.37129 47.5534 7.22727C47.5793 6.18725 48.6981 5.12201 51.1927 5.12201C53.2469 5.06983 54.7561 5.56358 55.8994 6.05768L56.4709 6.31716L57.3302 1.04036Z" fill="#00579F"/>
<path d="M65.7281 16.2227C66.2485 14.8189 68.2508 9.38555 68.2508 9.38555C68.2245 9.43772 68.7701 7.95578 69.0821 7.04603L69.5237 9.15163C69.5237 9.15163 70.7202 15.001 70.98 16.2227C69.9925 16.2227 66.9761 16.2227 65.7281 16.2227ZM73.5276 0.443115H68.6402C67.133 0.443115 65.9879 0.884691 65.3377 2.47063L55.9523 24.8794H62.5821C62.5821 24.8794 63.6736 21.8634 63.9082 21.2138C64.6356 21.2138 71.0851 21.2138 72.0207 21.2138C72.2021 22.0717 72.7747 24.8794 72.7747 24.8794H78.625L73.5276 0.443115Z" fill="#00579F"/>
<path d="M22.8289 0.443115L16.6409 17.1066L15.9648 13.727C14.8207 9.82747 11.2328 5.59069 7.22894 3.48405L12.8969 24.8538H19.5786L29.5102 0.443115H22.8289Z" fill="#00579F"/>
<path d="M10.8949 0.443115H0.729001L0.625 0.936865C8.55506 2.96473 13.807 7.85282 15.9648 13.7281L13.7548 2.49724C13.391 0.936519 12.2729 0.494598 10.8949 0.443115Z" fill="#FAA61A"/>
</g>
<defs>
<clipPath id="clip0_2_440">
<rect width="78" height="25.2438" fill="white" transform="translate(0.625)"/>
</clipPath>
</defs>
</svg>
