<?xml version="1.0" encoding="UTF-8"?>
<!DOCTYPE svg PUBLIC "-//W3C//DTD SVG 1.1//EN" "http://www.w3.org/Graphics/SVG/1.1/DTD/svg11.dtd">
<!-- Creator: CorelDRAW 2020 (64-Bit) -->
<svg xmlns="http://www.w3.org/2000/svg" xml:space="preserve" width="7.8054mm" height="7.8054mm" version="1.1" style="shape-rendering:geometricPrecision; text-rendering:geometricPrecision; image-rendering:optimizeQuality; fill-rule:evenodd; clip-rule:evenodd"
viewBox="0 0 780.54 780.54"
 xmlns:xlink="http://www.w3.org/1999/xlink"
 xmlns:xodm="http://www.corel.com/coreldraw/odm/2003">
 <defs>
  <style type="text/css">
   <![CDATA[
    .str0 {stroke:#FEFEFE;stroke-width:8.47;stroke-miterlimit:10}
    .fil0 {fill:#3EB6F7}
    .fil1 {fill:white}
   ]]>
  </style>
 </defs>
 <g id="Слой_x0020_1">
  <metadata id="CorelCorpID_0Corel-Layer"/>
  <g id="_2239559566192">
   <path class="fil0" d="M387.67 4.28c215.53,0 390.32,174.67 390.32,390.25 0,215.5 -174.79,390.19 -390.32,390.19 -215.52,0 -390.21,-174.69 -390.21,-390.19 0,-215.58 174.69,-390.25 390.21,-390.25z"/>
   <path class="fil1 str0" d="M592.16 399.93l0 0c-78.26,-84.19 -126.82,-135.57 -196.76,-208.84 -2.31,-3.06 -4.71,-4.59 -7.12,-4.59 -3.51,0 -7.13,1.53 -9.43,4.59l-195.66 207.3c-2.31,3.13 -3.51,6.25 -3.51,9.38 0,3.07 1.2,6.19 3.51,7.73 4.81,6.19 11.84,6.19 16.66,0l188.43 -197.93 187.33 200.99c1.2,1.6 4.71,3.13 8.33,3.13 3.51,0 5.92,-1.53 8.22,-3.13 4.82,-4.6 4.82,-13.92 0,-18.63zm-65.12 -9.32c-7.22,0 -11.94,4.71 -11.94,12.44l0 172.97c-145.2,0 -110.23,0 -254.85,0l0 -166.78c0,-7.72 -5.92,-12.45 -11.85,-12.45 -7.12,0 -11.83,4.73 -11.83,12.45l0 180.81c0,6.25 4.71,12.57 11.83,12.57l109.07 0c29.17,0 39.3,0 61.61,0l107.96 0c5.92,0 11.85,-6.32 11.85,-12.57l0 -187c0,-7.73 -5.93,-12.44 -11.85,-12.44z"/>
  </g>
 </g>
</svg>
